<svg xmlns="http://www.w3.org/2000/svg" viewBox="0 0 1238 654" width="540" height="300">
	<style>
		tspan { white-space:pre }
	</style>
	<path id="Forbiden Operation " fill="#000000" d="M276.16 551.6L305.2 551.6L305.2 546L269.28 546L269.28 601.2L276.16 601.2L276.16 576.4L302 576.4L302 570.8L276.16 570.8ZM330.08 557.68C315.68 557.68 309.04 568 309.04 580C309.04 591.92 315.68 602.32 330.08 602.32C344.48 602.32 351.12 591.92 351.12 580C351.12 568 344.48 557.68 330.08 557.68ZM330.08 597.04C321.52 597.04 316.56 589.92 316.56 580C316.56 570 321.52 562.96 330.08 562.96C338.64 562.96 343.6 570 343.6 580C343.6 589.92 338.64 597.04 330.08 597.04ZM376.08 557.84C374.08 557.84 371.92 558.56 370.16 559.76L366.32 565.44L366.32 558.8L359.44 558.8L359.44 601.2L366.32 601.2L366.32 577.04C366.32 567.36 371.76 563.12 378.96 563.6L378.96 558.4C378.16 558 377.2 557.84 376.08 557.84ZM407.12 557.68C402.8 557.68 398.32 559.04 395.92 561.04L392.72 565.6L392.72 542.4L385.84 542.4L385.84 601.2L392.72 601.2L392.72 595.36L395.52 599.52C397.68 601.28 402.16 602.32 405.68 602.32C416.64 602.32 426.4 595.04 426.4 579.36C426.4 566.96 419.52 557.68 407.12 557.68ZM405.68 597.04C399.6 597.04 392.72 592.88 392.72 581.92L392.72 579.6C392.72 567.44 399.04 562.96 406.08 562.96C414.56 562.96 418.88 570.56 418.88 580.16C418.88 591.28 413.12 597.04 405.68 597.04ZM438.16 544.88C435.68 544.88 433.76 546.8 433.76 549.28C433.76 551.76 435.68 553.68 438.16 553.68C440.64 553.68 442.56 551.76 442.56 549.28C442.56 546.8 440.64 544.88 438.16 544.88ZM441.6 601.2L441.6 558.8L434.72 558.8L434.72 601.2ZM490.8 542.4L483.92 542.4L483.92 564.64L481.12 560.48C478.96 558.72 474.48 557.68 470.96 557.68C460 557.68 450.24 564.96 450.24 580.64C450.24 593.04 457.12 602.32 469.52 602.32C473.84 602.32 478.32 600.96 480.72 598.96L483.92 594.4L483.92 601.2L490.8 601.2ZM470.56 597.04C462.08 597.04 457.76 589.44 457.76 579.84C457.76 568.72 463.52 562.96 470.96 562.96C477.04 562.96 483.92 567.12 483.92 578.08L483.92 580.4C483.92 592.56 477.6 597.04 470.56 597.04ZM537.76 578.8C537.76 566.4 531.28 557.68 519.6 557.68C508 557.68 499.44 566.4 499.44 580.16C499.44 595.12 507.68 602.32 518.72 602.32C527.44 602.32 535.52 597.76 537.2 587.52L530 587.52C529.04 593.6 524.56 597.04 519.04 597.04C512.8 597.04 507.52 593.28 506.88 582.08L537.6 582.08C537.76 580.56 537.76 579.44 537.76 578.8ZM519.44 562.96C526.4 562.96 530.16 568 530.8 576.8L506.96 576.8C507.76 567.76 512.72 562.96 519.44 562.96ZM582.56 570.08C581.92 562.64 576.72 557.68 567.44 557.68C563.12 557.68 560 558.4 556.4 561.2L553.76 566.08L553.76 558.8L546.88 558.8L546.88 601.2L553.76 601.2L553.76 582.56C553.76 568.08 559.36 563.12 566 563.12C572.56 563.12 575.28 566.8 575.68 571.76C575.84 573.92 575.84 575.68 575.84 577.84L575.84 601.2L582.72 601.2L582.72 577.36C582.72 573.92 582.72 572.24 582.56 570.08ZM635.52 544.88C618.72 544.88 609.44 556.72 609.44 573.6C609.44 590.4 618.72 602.32 635.52 602.32C652.32 602.32 661.6 590.4 661.6 573.6C661.6 556.72 652.32 544.88 635.52 544.88ZM635.52 596.88C623.92 596.88 617.12 587.92 617.12 573.6C617.12 559.2 623.92 550.32 635.52 550.32C647.12 550.32 653.92 559.2 653.92 573.6C653.92 587.92 647.12 596.88 635.52 596.88ZM691.84 557.68C687.52 557.68 683.04 559.04 680.64 561.04L677.44 565.6L677.44 558.8L670.56 558.8L670.56 616.88L677.44 616.88L677.44 595.36L680.24 599.52C682.4 601.28 686.88 602.32 690.4 602.32C701.36 602.32 711.12 595.04 711.12 579.36C711.12 566.96 704.24 557.68 691.84 557.68ZM690.4 597.04C684.32 597.04 677.44 592.88 677.44 581.92L677.44 579.6C677.44 567.44 683.76 562.96 690.8 562.96C699.28 562.96 703.6 570.56 703.6 580.16C703.6 591.28 697.84 597.04 690.4 597.04ZM754.24 578.8C754.24 566.4 747.76 557.68 736.08 557.68C724.48 557.68 715.92 566.4 715.92 580.16C715.92 595.12 724.16 602.32 735.2 602.32C743.92 602.32 752 597.76 753.68 587.52L746.48 587.52C745.52 593.6 741.04 597.04 735.52 597.04C729.28 597.04 724 593.28 723.36 582.08L754.08 582.08C754.24 580.56 754.24 579.44 754.24 578.8ZM735.92 562.96C742.88 562.96 746.64 568 747.28 576.8L723.44 576.8C724.24 567.76 729.2 562.96 735.92 562.96ZM780 557.84C778 557.84 775.84 558.56 774.08 559.76L770.24 565.44L770.24 558.8L763.36 558.8L763.36 601.2L770.24 601.2L770.24 577.04C770.24 567.36 775.68 563.12 782.88 563.6L782.88 558.4C782.08 558 781.12 557.84 780 557.84ZM814.08 601.2L820.96 601.2C820.32 596.48 820.16 593.6 820.16 590.4L820.16 574.48C820.16 572.64 820.08 570.56 819.92 568.88C819.2 561.92 814.96 557.68 804.88 557.68C795.52 557.68 789.2 562.88 788.56 571.92L795.76 571.92C796.24 566.08 799.12 562.96 804.88 562.96C810.56 562.96 812.8 565.52 813.12 569.44C813.28 571.04 813.28 572.72 813.28 574.56L813.28 575.68L810.56 575.68C793.92 575.68 786.72 580.64 786.72 590.24C786.72 598.08 792.72 602.32 800.4 602.32C804.48 602.32 808.16 601.68 811.04 599.68L813.36 595.12ZM802.72 597.04C797.52 597.04 794.24 594.8 794.24 589.68C794.24 582.4 801.6 579.92 813.28 580.8L813.28 585.12C813.28 592.8 809.12 597.04 802.72 597.04ZM840.48 564.4L848.4 564.4L848.4 559.12L840.48 559.12L840.48 549.28L833.6 549.28L833.6 559.12L827.92 559.12L827.92 564.4L833.6 564.4L833.6 589.12C833.6 591.52 833.6 593.28 833.68 594.4C834.08 599.68 836.8 601.84 842.08 601.84C844 601.84 845.92 601.76 847.92 601.44L847.92 596.4C842.56 597.04 840.88 596.16 840.56 592.08C840.48 590.96 840.48 590.24 840.48 588.8ZM860.72 544.88C858.24 544.88 856.32 546.8 856.32 549.28C856.32 551.76 858.24 553.68 860.72 553.68C863.2 553.68 865.12 551.76 865.12 549.28C865.12 546.8 863.2 544.88 860.72 544.88ZM864.16 601.2L864.16 558.8L857.28 558.8L857.28 601.2ZM893.84 557.68C879.44 557.68 872.8 568 872.8 580C872.8 591.92 879.44 602.32 893.84 602.32C908.24 602.32 914.88 591.92 914.88 580C914.88 568 908.24 557.68 893.84 557.68ZM893.84 597.04C885.28 597.04 880.32 589.92 880.32 580C880.32 570 885.28 562.96 893.84 562.96C902.4 562.96 907.36 570 907.36 580C907.36 589.92 902.4 597.04 893.84 597.04ZM958.88 570.08C958.24 562.64 953.04 557.68 943.76 557.68C939.44 557.68 936.32 558.4 932.72 561.2L930.08 566.08L930.08 558.8L923.2 558.8L923.2 601.2L930.08 601.2L930.08 582.56C930.08 568.08 935.68 563.12 942.32 563.12C948.88 563.12 951.6 566.8 952 571.76C952.16 573.92 952.16 575.68 952.16 577.84L952.16 601.2L959.04 601.2L959.04 577.36C959.04 573.92 959.04 572.24 958.88 570.08Z" />
	<path id="Hmm. No deberias estar aqui." fill="#000000" d="M88.82 406L93.43 406C98.27 406 102.8 405.84 103.2 404.83C103.2 398.27 103.35 391.78 103.35 385.3C104.99 385.06 106.55 384.98 108.2 384.98L109.6 384.98C110.54 384.98 110.7 385.38 110.7 386.55C110.7 391.78 110.62 396.78 110.62 402.02L110.62 404.59L111.79 406.23L128.04 406.23C131.71 406.23 135.3 406.08 135.54 404.83C135.54 400.69 135.38 396.39 135.38 392.25C135.38 392.09 135.38 391.94 135.46 391.78L135.46 390.92C135.38 389.67 135.38 388.42 135.38 387.17L135.38 385.3C135.38 384.91 135.46 384.36 135.46 383.73C135.46 375.61 135.23 367.64 135.23 359.52C135.23 356.78 135.3 354.28 135.3 351.55C135.3 350.3 135.23 349.2 135.23 347.95C135.23 346 129.76 345.61 124.6 345.61C120.77 345.61 117.26 345.84 116.48 345.84C115.46 345.84 114.21 345.77 113.2 345.77C111.55 345.77 111.16 345.92 111.16 349.83L111.16 366.08C110.3 366.31 109.37 366.31 108.51 366.31C107.18 366.31 105.77 366.23 104.45 366.23L102.88 366.23C102.88 366 102.88 365.84 102.8 365.61L102.8 364.83C102.8 362.33 103.04 359.83 103.04 357.33L103.04 355.53C103.04 353.58 103.2 352.02 103.2 350.77C103.2 347.33 102.02 346.23 94.29 346.23L79.76 346.23C78.9 346.7 78.9 352.8 78.9 355.14C78.9 369.36 78.27 383.27 78.27 399.59C78.27 407.79 81.52 406 88.82 406ZM171.4 351.39L167.41 351.39C163.74 351.39 157.8 350.69 150.77 350.69C149.91 350.77 148.82 350.77 147.96 350.77L144.37 350.77C143.51 351.39 143.43 351.63 143.43 352.25L143.43 366.08C143.43 370.69 143.51 376.31 143.51 382.56C143.51 388.89 143.59 395.45 143.82 401.08C143.82 401.31 143.59 402.56 143.59 402.95L162.02 402.95L162.02 396.08C162.02 387.72 162.18 380.14 162.57 372.02L163.98 378.73C165.6 386.49 167.33 394.13 169.05 401.78C169.37 403.11 170.07 403.34 171.63 403.34C172.18 403.34 173.43 403.27 174.13 403.27C176.87 403.27 179.05 403.42 182.18 403.42C183.82 403.42 185.54 403.27 186.09 402.33L188.43 392.33C189.52 387.72 191.55 382.88 192.65 378.27L192.65 375.3C192.57 376.78 192.49 378.19 192.49 379.59C192.49 380.22 192.57 380.84 192.57 381.39L192.57 384.83C192.57 388.03 192.41 390.84 192.41 394.59C192.41 398.58 192.73 402.56 194.37 403.58C199.37 403.58 204.45 403.42 209.37 403.42C210.62 403.42 212.1 403.5 212.34 401.7L212.34 355.69C212.34 353.34 212.18 351.09 211.24 351.09L183.77 351.07L177.69 374.94L173.05 351.14C172.58 351.25 171.87 351.23 171.4 351.39ZM172.26 351.23ZM192.65 375.06L192.65 374.98ZM248.43 351.39L244.45 351.39C240.77 351.39 234.84 350.69 227.8 350.69C226.95 350.77 225.85 350.77 224.99 350.77L221.4 350.77C220.54 351.39 220.46 351.63 220.46 352.25L220.46 366.08C220.46 370.69 220.54 376.31 220.54 382.56C220.54 388.89 220.62 395.45 220.85 401.08C220.85 401.31 220.62 402.56 220.62 402.95L239.05 402.95L239.05 396.08C239.05 387.72 239.21 380.14 239.6 372.02L241.01 378.73C242.63 386.49 244.36 394.13 246.09 401.78C246.4 403.11 247.1 403.34 248.66 403.34C249.21 403.34 250.46 403.27 251.16 403.27C253.9 403.27 256.09 403.42 259.21 403.42C260.85 403.42 262.57 403.27 263.12 402.33L265.46 392.33C266.55 387.72 268.59 382.88 269.68 378.27L269.68 375.3C269.6 376.78 269.52 378.19 269.52 379.59C269.52 380.22 269.6 380.84 269.6 381.39L269.6 384.83C269.6 388.03 269.45 390.84 269.45 394.59C269.45 398.58 269.76 402.56 271.4 403.58C276.4 403.58 281.48 403.42 286.4 403.42C287.65 403.42 289.13 403.5 289.37 401.7L289.37 355.69C289.37 353.34 289.21 351.09 288.27 351.09L260.8 351.07L254.72 374.94L250.08 351.14C249.61 351.25 248.9 351.23 248.43 351.39ZM249.29 351.23ZM269.68 375.06L269.68 374.98ZM297.8 404.44L299.05 405.61L318.27 405.61C318.9 405.61 319.13 404.59 319.13 403.42C319.13 402.8 319.05 402.25 319.05 401.7L319.05 400.38C319.05 396.63 318.98 392.64 318.9 388.89C318.9 387.95 316.95 387.8 315.15 387.8L299.13 387.8C298.04 387.8 297.88 393.73 297.88 397.33L297.88 399.36C297.88 400.84 297.8 402.02 297.8 403.27ZM350.85 405.14L352.57 406.08L370.54 406.08C371.71 406.08 372.1 405.14 372.1 404.28L372.1 399.36C372.1 395.92 371.95 392.48 371.95 389.05C371.95 384.44 372.02 379.91 372.02 375.3C375.2 383.84 378.43 392.33 381.55 400.92C382.49 403.5 383.35 405.69 383.82 405.84L395.3 405.84C399.37 405.84 403.2 405.69 407.26 405.69L408.27 405.69C409.45 405.69 410.54 405.53 410.77 404.67L410.77 377.56C410.77 367.25 410.77 357.33 410.54 346.47C410.54 346.39 410.3 346.23 409.91 346.23L406.95 346.23C404.99 346.23 400.93 346.08 397.41 346.08C394.05 346.08 391.16 346.23 391.16 347.17C391.24 352.41 391.01 357.48 391.01 362.48L391.01 377.64L385.54 363.34C383.43 358.19 379.52 346.31 378.66 346.31L351.79 346.31C351.63 346.39 351.48 346.94 351.48 347.33L351.48 350.53C351.16 362.95 350.77 375.06 350.85 387.48ZM410.54 346.55L410.54 346.39ZM415.93 376.7L415.93 379.05C416.95 396.39 428.59 404.44 441.79 404.44C448.43 404.44 458.2 402.88 463.2 396.63L464.76 394.67C468.35 389.75 469.91 384.05 469.91 376.39C469.91 368.66 467.26 363.11 463.51 358.42L463.51 357.33C458.43 350.77 448.43 349.52 443.43 349.52C438.73 350.26 434.51 350.97 430.85 352.48L429.37 352.48C427.1 353.42 425.23 354.44 423.66 356.23L422.73 357.17C417.02 362.88 416.55 369.75 415.85 375.84ZM437.41 377.02L437.41 375.3C437.41 369.98 438.35 363.73 443.27 363.73C447.96 363.73 448.9 370.84 448.9 375.61L448.9 377.02C448.9 383.19 448.59 390.77 442.65 390.77C437.65 390.77 437.41 381.63 437.41 377.02ZM521.09 350.77L511.09 350.77C507.68 350.77 504.22 351.47 500.85 351.47C500.62 351.47 500.23 351.39 499.99 351.39L499.99 403.27L526.79 403.27C537.57 402.64 551.16 395.3 551.16 376.86C551.16 355.98 537.93 350.77 521.09 350.77ZM521.55 391.08L519.68 391.08L519.68 363.42L520.85 363.42L520.85 362.56C524.21 362.56 527.18 362.95 529.29 367.17C530.38 369.98 529.99 371.86 530.38 373.89L530.38 376.7C530.38 382.35 529.79 391.08 521.55 391.08ZM556.16 354.52L556.16 402.09L557.34 403.11L596.01 403.11C597.26 403.03 597.49 402.41 597.49 401.39L597.49 388.89C597.1 387.88 595.7 387.95 594.6 387.95L589.6 387.95C586.48 387.95 582.88 388.19 579.45 388.19C578.82 388.19 578.2 388.11 577.57 388.11L577.57 383.11L583.82 383.11C587.8 383.11 591.32 382.72 594.45 382.72L594.45 382.8C594.84 382.8 594.91 382.56 595.15 382.02L595.15 381C595.15 379.67 594.99 379.44 594.99 377.8L594.99 376.7C594.99 376.08 594.91 375.61 594.91 375.22L594.91 373.73C594.91 373.34 595.07 372.8 595.07 372.41C595.07 371.47 594.76 370.77 593.2 370.77C588.27 370.77 583.74 371.08 579.13 371.08L577.41 371.08L577.41 366.23L595.54 366.23C596.24 365.69 596.55 365.61 596.63 364.98L596.63 351.94C596.63 351.39 596.32 351 595.62 350.92L585.23 350.92C577.26 350.92 569.21 351.31 561.32 351.31L559.29 351.31C559.05 351.23 558.82 351.23 558.43 351.23L557.49 351.23C556.01 351.23 556.16 352.33 556.16 354.52ZM643.04 375.77C647.39 373.15 650.15 370.44 650.15 364.75C650.15 360.84 648.74 356.62 645.54 354.52C641.55 351.62 636.55 350.77 631.55 350.77L601.87 350.77L601.87 403.27L638.74 403.27L642.02 401.31C647.65 399.28 651.32 394.36 651.55 387.95C651.55 383.35 648.6 375.77 643.04 375.77ZM622.82 380.77C626.18 380.77 631.4 380.76 631.4 386.31C631.4 389.98 628.66 390.92 625.77 391.16L622.73 391.16C622.34 391.08 621.25 390.75 621.25 390.51ZM622.02 363.58C622.02 363.19 622.02 362.8 622.65 362.56L622.65 362.64C622.73 362.64 623.35 362.64 623.51 362.56C626.79 362.56 630.7 363.42 630.7 367.17C630.7 372.56 625.46 372.56 622.65 372.56C622.41 372.48 622.34 372.25 622.34 372.02L622.34 370.77C622.34 370.14 622.26 369.59 622.26 369.2C622.26 368.97 622.34 368.66 622.34 368.42L622.34 367.64C622.34 366.16 622.26 364.91 622.02 363.58ZM656.71 354.52L656.71 402.09L657.88 403.11L696.55 403.11C697.8 403.03 698.04 402.41 698.04 401.39L698.04 388.89C697.65 387.88 696.24 387.95 695.15 387.95L690.15 387.95C687.02 387.95 683.43 388.19 679.99 388.19C679.37 388.19 678.74 388.11 678.12 388.11L678.12 383.11L684.37 383.11C688.35 383.11 691.87 382.72 694.99 382.72L694.99 382.8C695.38 382.8 695.46 382.56 695.7 382.02L695.7 381C695.7 379.67 695.54 379.44 695.54 377.8L695.54 376.7C695.54 376.08 695.46 375.61 695.46 375.22L695.46 373.73C695.46 373.34 695.62 372.8 695.62 372.41C695.62 371.47 695.3 370.77 693.74 370.77C688.82 370.77 684.29 371.08 679.68 371.08L677.96 371.08L677.96 366.23L696.09 366.23C696.79 365.69 697.1 365.61 697.18 364.98L697.18 351.94C697.18 351.39 696.87 351 696.16 350.92L685.77 350.92C677.8 350.92 669.76 351.31 661.87 351.31L659.84 351.31C659.6 351.23 659.37 351.23 658.98 351.23L658.04 351.23C656.55 351.23 656.71 352.33 656.71 354.52ZM702.57 351.23L702.57 403.42L723.12 403.42C724.6 403.42 724.45 402.48 724.45 401.23L724.45 385.61L726.24 385.61C728.82 385.61 729.13 386.94 729.6 388.66L730.46 395.61C730.85 399.13 731.95 402.64 733.04 402.95L735.7 402.95C736.63 402.95 737.57 402.95 738.51 403.03C743.12 403.03 747.96 402.95 752.65 402.95C753.35 402.95 753.51 402.25 753.51 401.55C753.51 397.54 751.4 393.19 751.01 389.44C750.15 384.36 749.6 379.12 743.66 376.55C749.13 373.82 751.79 369.93 751.79 364.2C751.79 353.6 741.52 350.92 731.63 350.92C724.37 350.92 716.63 351.23 709.84 351.23ZM724.68 371.86C724.68 369.59 724.45 367.33 724.45 365.06L724.45 363.58C724.45 363.27 724.91 363.03 725.23 362.95C727.57 362.95 733.04 363.03 733.04 367.02C733.04 371.78 728.27 372.8 725.54 372.8C725.15 372.67 724.92 372.15 724.68 371.86ZM756.55 403.5L777.96 403.5C778.51 403.5 778.66 403.11 778.9 402.09L778.9 351.23L757.88 351.23C757.49 351.63 756.63 351.63 756.55 352.17ZM804.37 395.3L816.4 395.3C817.41 395.3 817.41 395.22 817.65 396.23L819.13 402.17C819.29 403.03 820.23 403.11 821.4 403.27L839.52 403.27C841.16 403.27 841.71 403.03 841.71 401.55C841.48 400.69 840.77 399.75 840.54 398.73L840.54 397.95L840.54 398.03C839.15 394.05 837.77 390.04 836.5 385.94L834.95 380.29C834.09 377.72 832.19 374.58 831.87 372.02L831.87 371.55C830.01 365.93 828.17 360.3 826.32 354.67C825.93 353.97 825.54 353.34 825.46 352.87L825.46 351.86C824.99 351.08 822.57 350.92 819.52 350.92L798.43 350.77C798.05 351.15 797.97 351.32 797.65 351.86C796.37 355.84 795.09 359.83 793.74 363.73L793.74 363.66C789.47 376.49 785.8 389.31 781.55 402.17L781.55 403.5L798.43 403.5C804.13 403.5 803.17 399.35 804.37 395.3ZM806.24 381.39L806.24 381.55ZM814.84 376.7C814.84 377.02 815.15 377.33 815.23 377.64L815.23 378.5C815.54 379.67 815.93 381.31 815.93 382.17L806.24 382.17C806.24 381.78 806.63 380.38 806.63 379.67C807.34 376.61 808.04 373.53 808.74 370.45C808.74 370.3 809.21 370.14 809.37 369.67L809.37 367.8C809.76 365.69 810.55 362.72 811.24 362.56L811.24 362.48C811.79 362.72 812.1 363.03 812.34 363.66L812.34 365.53C813.5 369.04 814.04 373 814.84 376.7ZM874.45 366.39C877.18 366.39 879.76 366.55 882.02 366.55L888.66 366.55L889.76 364.98C889.37 362.09 889.05 359.05 886.87 356.86C883.2 352.46 875.45 349.2 866.79 349.2C855.39 349.2 842.26 353.71 842.26 367.17C842.26 374.91 846.71 379.91 858.19 383.27L860.54 383.27C863.9 384.2 870.62 385.38 870.62 387.88C870.62 390.06 868.43 391 866.63 391C861.55 391 863.59 386.39 860.69 386.39L858.9 386.39C856.4 386.39 853.43 386.39 851.16 386.47C850.93 386.39 850.77 386.39 850.62 386.39L849.6 386.39C849.05 386.39 848.59 386.39 848.04 386.47L844.05 386.47C843.59 386.47 843.12 386.39 842.65 386.39C842.1 386.39 841.79 386.7 841.79 387.33C842.18 392.33 844.13 396.47 849.05 400.14L849.05 400.61C853.04 403.73 860.85 404.28 865.54 404.52C874.99 403.89 886.55 402.33 889.99 391.94L889.99 392.02C890.62 390.14 890.93 388.11 890.93 385.61C890.93 375.3 882.1 371.47 874.68 369.44L868.96 368.03C867.24 367.17 862.88 367.17 862.88 364.98C862.88 363.5 866.01 363.27 866.55 363.27C872.43 363.27 870.57 366.39 874.44 366.39ZM919.37 354.52L919.37 402.09L920.54 403.11L959.21 403.11C960.46 403.03 960.7 402.41 960.7 401.39L960.7 388.89C960.3 387.88 958.9 387.95 957.8 387.95L952.8 387.95C949.68 387.95 946.09 388.19 942.65 388.19C942.02 388.19 941.4 388.11 940.77 388.11L940.77 383.11L947.02 383.11C951.01 383.11 954.52 382.72 957.65 382.72L957.65 382.8C958.04 382.8 958.12 382.56 958.35 382.02L958.35 381C958.35 379.67 958.2 379.44 958.2 377.8L958.2 376.7C958.2 376.08 958.12 375.61 958.12 375.22L958.12 373.73C958.12 373.34 958.27 372.8 958.27 372.41C958.27 371.47 957.96 370.77 956.4 370.77C951.48 370.77 946.95 371.08 942.34 371.08L940.62 371.08L940.62 366.23L958.74 366.23C959.45 365.69 959.76 365.61 959.84 364.98L959.84 351.94C959.84 351.39 959.52 351 958.82 350.92L948.43 350.92C940.46 350.92 932.41 351.31 924.52 351.31L922.49 351.31C922.26 351.23 922.02 351.23 921.63 351.23L920.7 351.23C919.21 351.23 919.37 352.33 919.37 354.52ZM995.38 366.39C998.12 366.39 1000.7 366.55 1002.96 366.55L1009.6 366.55L1010.7 364.98C1010.3 362.09 1009.99 359.05 1007.8 356.86C1004.14 352.46 996.39 349.2 987.73 349.2C976.33 349.2 963.19 353.71 963.19 367.17C963.19 374.91 967.65 379.91 979.13 383.27L981.48 383.27C984.84 384.2 991.55 385.38 991.55 387.88C991.55 390.06 989.37 391 987.57 391C982.49 391 984.52 386.39 981.63 386.39L979.84 386.39C977.34 386.39 974.37 386.39 972.1 386.47C971.87 386.39 971.71 386.39 971.55 386.39L970.54 386.39C969.99 386.39 969.52 386.39 968.98 386.47L964.99 386.47C964.52 386.47 964.05 386.39 963.59 386.39C963.04 386.39 962.73 386.7 962.73 387.33C963.12 392.33 965.07 396.47 969.99 400.14L969.99 400.61C973.98 403.73 981.79 404.28 986.48 404.52C995.93 403.89 1007.49 402.33 1010.93 391.94L1010.93 392.02C1011.55 390.14 1011.87 388.11 1011.87 385.61C1011.87 375.3 1003.04 371.47 995.62 369.44L989.89 368.03C988.17 367.17 983.82 367.17 983.82 364.98C983.82 363.5 986.94 363.27 987.49 363.27C993.37 363.27 991.51 366.39 995.38 366.39ZM1012.49 365.45C1012.49 366.47 1014.05 366.7 1014.91 366.7L1024.68 366.7C1024.68 367.33 1024.76 368.81 1024.76 369.52C1024.76 370.14 1024.68 370.84 1024.68 371.47L1024.68 372.48C1024.68 379.98 1024.21 386.78 1024.05 393.89L1024.05 402.33L1025.62 403.42L1027.8 403.42C1029.68 403.42 1031.16 403.34 1032.96 403.34L1036.09 403.34C1036.71 403.34 1037.34 403.27 1037.96 403.27C1037.96 403.5 1040.93 403.58 1042.96 403.58L1045.46 403.58C1046.55 403.42 1046.55 403.03 1046.71 402.33L1046.71 366.39L1057.8 366.39C1058.2 366.39 1058.82 366.31 1058.9 365.45L1058.9 352.95C1058.9 352.25 1058.9 351.55 1057.96 351.39L1012.49 351.39ZM1080.15 395.3L1092.18 395.3C1093.2 395.3 1093.2 395.22 1093.43 396.23L1094.91 402.17C1095.07 403.03 1096.01 403.11 1097.18 403.27L1115.3 403.27C1116.95 403.27 1117.49 403.03 1117.49 401.55C1117.26 400.69 1116.55 399.75 1116.32 398.73L1116.32 397.95L1116.32 398.03C1114.93 394.05 1113.55 390.04 1112.28 385.94L1110.73 380.29C1109.87 377.72 1107.97 374.58 1107.65 372.02L1107.65 371.55C1105.79 365.93 1103.95 360.3 1102.1 354.67C1101.71 353.97 1101.32 353.34 1101.24 352.87L1101.24 351.86C1100.77 351.08 1098.35 350.92 1095.3 350.92L1074.21 350.77C1073.83 351.15 1073.75 351.32 1073.43 351.86C1072.15 355.84 1070.87 359.83 1069.52 363.73L1069.52 363.66C1065.25 376.49 1061.58 389.31 1057.34 402.17L1057.34 403.5L1074.21 403.5C1079.91 403.5 1078.95 399.35 1080.15 395.3ZM1082.02 381.39L1082.02 381.55ZM1090.62 376.7C1090.62 377.02 1090.93 377.33 1091.01 377.64L1091.01 378.5C1091.32 379.67 1091.71 381.31 1091.71 382.17L1082.02 382.17C1082.02 381.78 1082.41 380.38 1082.41 379.67C1083.12 376.61 1083.82 373.53 1084.52 370.45C1084.52 370.3 1084.99 370.14 1085.15 369.67L1085.15 367.8C1085.54 365.69 1086.33 362.72 1087.02 362.56L1087.02 362.48C1087.57 362.72 1087.88 363.03 1088.12 363.66L1088.12 365.53C1089.29 369.04 1089.82 373 1090.62 376.7ZM1120.07 351.23L1120.07 403.42L1140.62 403.42C1142.1 403.42 1141.95 402.48 1141.95 401.23L1141.95 385.61L1143.74 385.61C1146.32 385.61 1146.63 386.94 1147.1 388.66L1147.96 395.61C1148.35 399.13 1149.45 402.64 1150.54 402.95L1153.2 402.95C1154.13 402.95 1155.07 402.95 1156.01 403.03C1160.62 403.03 1165.46 402.95 1170.15 402.95C1170.85 402.95 1171.01 402.25 1171.01 401.55C1171.01 397.54 1168.9 393.19 1168.51 389.44C1167.65 384.36 1167.1 379.12 1161.16 376.55C1166.63 373.82 1169.29 369.93 1169.29 364.2C1169.29 353.6 1159.02 350.92 1149.13 350.92C1141.87 350.92 1134.13 351.23 1127.34 351.23ZM1142.18 371.86C1142.18 369.59 1141.95 367.33 1141.95 365.06L1141.95 363.58C1141.95 363.27 1142.41 363.03 1142.73 362.95C1145.07 362.95 1150.54 363.03 1150.54 367.02C1150.54 371.78 1145.77 372.8 1143.04 372.8C1142.65 372.67 1142.42 372.15 1142.18 371.86ZM529.25 491.3L541.28 491.3C542.3 491.3 542.3 491.22 542.53 492.23L544.02 498.17C544.17 499.03 545.11 499.11 546.28 499.27L564.41 499.27C566.05 499.27 566.59 499.03 566.59 497.55C566.36 496.69 565.66 495.75 565.42 494.73L565.42 493.95L565.42 494.03C564.03 490.05 562.65 486.04 561.39 481.94L559.84 476.29C558.97 473.72 557.07 470.58 556.75 468.02L556.75 467.55C554.89 461.93 553.05 456.3 551.2 450.67C550.81 449.97 550.42 449.34 550.34 448.87L550.34 447.86C549.87 447.08 547.45 446.92 544.41 446.92L523.31 446.77C522.93 447.15 522.85 447.32 522.53 447.86C521.25 451.84 519.98 455.83 518.62 459.73L518.62 459.66C514.35 472.49 510.69 485.31 506.44 498.17L506.44 499.5L523.31 499.5C529.02 499.5 528.05 495.35 529.25 491.3ZM531.12 477.39L531.12 477.55ZM539.72 472.7C539.72 473.02 540.03 473.33 540.11 473.64L540.11 474.5C540.42 475.67 540.81 477.31 540.81 478.17L531.12 478.17C531.12 477.78 531.51 476.38 531.51 475.67C532.23 472.61 532.93 469.53 533.62 466.45C533.62 466.3 534.09 466.14 534.25 465.67L534.25 463.8C534.64 461.69 535.43 458.72 536.12 458.56L536.12 458.48C536.67 458.72 536.98 459.03 537.22 459.66L537.22 461.53C538.39 465.04 538.92 469 539.72 472.7ZM566.98 472.7C566.98 478.48 568.86 483.41 572.14 488.95L572.14 489.97C572.53 490.36 572.92 490.91 573.23 491.45L574.41 492.78L574.41 492.7L574.41 493.48L575.55 495.27L581.48 498.23C584.69 499.72 588.31 500.67 592.45 500.67C599.48 500.67 605.42 499.27 612.53 499.27C616.05 499.27 619.8 499.73 621.28 499.73C621.98 499.58 622.38 499.11 622.61 498.33L622.61 485.91L621.05 484.58L616.75 484.58C619.33 481.22 620.5 477.08 620.73 472.39L620.73 471.45C620.73 456.77 611.36 445.52 594.95 445.52L593.39 445.52C590.11 445.52 585.34 446.45 584.02 446.92L581.05 447.86C580.11 448.17 579.25 448.64 578.39 449.34L576.13 451.14C570.73 456.14 566.98 462.78 566.98 472.7ZM587.61 472.78C587.61 466.84 588.39 459.03 593.31 459.03C599.17 459.03 599.8 465.83 599.8 470.52L599.8 475.52C599.8 480.05 599.02 486.92 593.47 486.92C587.53 486.92 587.61 477.7 587.61 472.78ZM625.66 456.38L625.66 456.3L625.66 457.63C625.66 458.8 625.81 459.97 625.81 461.14C625.81 461.53 625.73 462 625.73 462.39L625.73 463.48C625.42 469.73 625.58 475.28 625.5 481.38C625.89 493.56 634.33 498.95 642.22 499.89L644.02 499.89C645.5 500.05 647.53 500.36 649.02 500.28L649.02 500.2C649.41 500.2 650.19 500.13 650.19 499.81L651.13 499.81C651.67 500.05 652.22 500.05 652.77 500.05C661.59 500.05 671.05 497.55 674.56 489.42L674.56 489.27C675.42 487.39 675.66 484.34 675.66 481.45L675.66 478.41C675.58 477.86 675.58 477.23 675.58 476.53C675.58 475.83 675.66 475.05 675.66 474.19L675.66 471.77C675.81 465.28 676.05 459.34 676.28 452.7L676.28 446.61L654.56 446.61C653.86 446.92 653.47 447.47 653.47 448.17C653.63 451.22 653.63 454.58 653.63 458.02C653.63 463.95 653.47 469.58 653.39 475.28L653.39 481.06C653.39 483.02 652.22 484.81 650.5 484.81C647.77 484.81 647.53 481.45 647.53 479.73L647.53 446.92L626.28 446.92C625.66 447.55 625.5 449.81 625.5 451.92C625.5 453.93 625.47 455.43 625.66 456.38ZM681.83 499.5L703.23 499.5C703.78 499.5 703.94 499.11 704.17 498.09L704.17 447.23L683.16 447.23C682.77 447.63 681.91 447.63 681.83 448.17ZM712.45 500.44L713.7 501.61L732.92 501.61C733.55 501.61 733.78 500.59 733.78 499.42C733.78 498.8 733.7 498.25 733.7 497.7L733.7 496.38C733.7 492.63 733.63 488.64 733.55 484.89C733.55 483.95 731.59 483.8 729.8 483.8L713.78 483.8C712.69 483.8 712.53 489.73 712.53 493.33L712.53 495.36C712.53 496.84 712.45 498.02 712.45 499.27Z" />
	<path id="403 " fill="#000000" d="M297.37 214.86C299.71 219.55 302.64 218.09 306.75 218.09L396.98 218.09L396.98 250.02L401.96 256.17C418.37 255 433.6 255.29 449.42 255.29L477.84 255.29C483.7 254.71 483.7 251.78 483.7 246.5C483.7 238.01 483.41 229.22 483.11 220.14L503.62 220.14C508.02 220.14 508.6 214.86 508.6 201.97C508.6 186.45 507.72 170.04 507.72 167.4C508.02 167.4 508.31 167.11 508.31 166.82C508.31 158.91 506.84 158.03 500.69 158.03C496.88 158.03 492.2 158.32 488.39 158.32C482.82 158.32 481.94 152.75 481.94 147.48L481.94 142.21C482.23 140.74 482.23 138.98 482.23 137.52L482.23 136.35C481.94 134 481.94 131.66 481.94 129.32L481.94 122.58C481.94 95.33 483.11 68.67 483.11 41.43L483.11 32.05L372.96 32.05C354.34 61.39 335.75 93.67 317.29 123.17C309.97 135.76 297.37 154.81 297.37 170.92ZM358.01 159.2C371.49 134.88 388 110.67 401.67 86.54L401.67 84.2C406.65 84.2 407.53 107.93 407.53 126.09C407.53 138.4 407.23 148.95 407.23 149.82C407.23 151.88 407.23 153.63 407.53 155.1L407.53 160.66C406.65 163.3 405.77 164.77 403.13 165.94C390.24 165.94 374.71 166.82 361.53 166.82C360.65 165.64 358.31 164.47 358.02 163.01ZM612.02 259.39C670.61 259.39 716.02 221.6 716.02 145.72C716.02 92.99 699.03 24.14 613.78 24.14C554.3 28.83 511.24 60.47 511.24 143.38C515.68 207.72 533.26 259.4 612.02 259.4ZM589.76 149.24C589.76 119.94 588.88 77.17 615.54 77.17C641.32 77.17 637.8 120.53 637.8 133.13C637.8 138.4 637.8 143.67 637.22 148.65C637.22 168.87 638.1 207.25 612.61 207.25C590.93 207.25 589.76 170.92 589.76 149.24ZM823.84 259.69C858.11 259.69 925.79 252.07 925.79 186.74C925.79 162.42 914.95 145.43 883.6 135.76C902.35 129.9 920.81 119.65 920.81 88.3C920.81 44.65 871.59 25.02 836.14 25.02C810.95 25.02 781.06 25.9 758.8 39.08C730.87 55.49 731.08 73.78 728.33 99.43C728.33 104.12 733.6 105 739.75 105C742.39 105 745.03 104.71 747.37 104.71C765.83 105.59 784.28 105.88 802.74 105.88C806.26 104.41 808.31 101.49 809.19 97.68L809.19 91.82C810.36 86.25 813.58 80.98 823.25 80.98C831.75 80.98 836.73 87.72 836.73 95.92C836.73 115.25 825.59 118.77 812.12 118.77L800.4 118.77C793.66 118.77 792.49 127.85 792.49 142.5L792.49 151.88C792.49 160.66 794.54 165.65 802.45 165.65L808.89 165.65C822.08 165.65 839.07 167.11 839.07 187.33C839.07 196.7 832.92 203.73 822.37 203.73C810.07 203.73 805.96 195.82 804.5 184.4L804.5 184.1C804.21 181.17 802.45 180.88 799.23 180.88L729.5 180.88C726.28 180.88 724.81 182.93 724.81 185.57C727.51 242.22 769.12 259.69 823.84 259.69Z" />
</svg>