<svg xmlns="http://www.w3.org/2000/svg" viewBox="0 0 1366 768" width="540" height="300">
	<style>
		tspan { white-space:pre }
	</style>
	<path id="Internal Server Error " fill="#000000" d="M346.32 629.2L346.32 574L339.44 574L339.44 629.2ZM394.16 598.08C393.52 590.64 388.32 585.68 379.04 585.68C374.72 585.68 371.6 586.4 368 589.2L365.36 594.08L365.36 586.8L358.48 586.8L358.48 629.2L365.36 629.2L365.36 610.56C365.36 596.08 370.96 591.12 377.6 591.12C384.16 591.12 386.88 594.8 387.28 599.76C387.44 601.92 387.44 603.68 387.44 605.84L387.44 629.2L394.32 629.2L394.32 605.36C394.32 601.92 394.32 600.24 394.16 598.08ZM414.16 592.4L422.08 592.4L422.08 587.12L414.16 587.12L414.16 577.28L407.28 577.28L407.28 587.12L401.6 587.12L401.6 592.4L407.28 592.4L407.28 617.12C407.28 619.52 407.28 621.28 407.36 622.4C407.76 627.68 410.48 629.84 415.76 629.84C417.68 629.84 419.6 629.76 421.6 629.44L421.6 624.4C416.24 625.04 414.56 624.16 414.24 620.08C414.16 618.96 414.16 618.24 414.16 616.8ZM464.72 606.8C464.72 594.4 458.24 585.68 446.56 585.68C434.96 585.68 426.4 594.4 426.4 608.16C426.4 623.12 434.64 630.32 445.68 630.32C454.4 630.32 462.48 625.76 464.16 615.52L456.96 615.52C456 621.6 451.52 625.04 446 625.04C439.76 625.04 434.48 621.28 433.84 610.08L464.56 610.08C464.72 608.56 464.72 607.44 464.72 606.8ZM446.4 590.96C453.36 590.96 457.12 596 457.76 604.8L433.92 604.8C434.72 595.76 439.68 590.96 446.4 590.96ZM490.48 585.84C488.48 585.84 486.32 586.56 484.56 587.76L480.72 593.44L480.72 586.8L473.84 586.8L473.84 629.2L480.72 629.2L480.72 605.04C480.72 595.36 486.16 591.12 493.36 591.6L493.36 586.4C492.56 586 491.6 585.84 490.48 585.84ZM535.92 598.08C535.28 590.64 530.08 585.68 520.8 585.68C516.48 585.68 513.36 586.4 509.76 589.2L507.12 594.08L507.12 586.8L500.24 586.8L500.24 629.2L507.12 629.2L507.12 610.56C507.12 596.08 512.72 591.12 519.36 591.12C525.92 591.12 528.64 594.8 529.04 599.76C529.2 601.92 529.2 603.68 529.2 605.84L529.2 629.2L536.08 629.2L536.08 605.36C536.08 601.92 536.08 600.24 535.92 598.08ZM572 629.2L578.88 629.2C578.24 624.48 578.08 621.6 578.08 618.4L578.08 602.48C578.08 600.64 578 598.56 577.84 596.88C577.12 589.92 572.88 585.68 562.8 585.68C553.44 585.68 547.12 590.88 546.48 599.92L553.68 599.92C554.16 594.08 557.04 590.96 562.8 590.96C568.48 590.96 570.72 593.52 571.04 597.44C571.2 599.04 571.2 600.72 571.2 602.56L571.2 603.68L568.48 603.68C551.84 603.68 544.64 608.64 544.64 618.24C544.64 626.08 550.64 630.32 558.32 630.32C562.4 630.32 566.08 629.68 568.96 627.68L571.28 623.12ZM560.64 625.04C555.44 625.04 552.16 622.8 552.16 617.68C552.16 610.4 559.52 607.92 571.2 608.8L571.2 613.12C571.2 620.8 567.04 625.04 560.64 625.04ZM596.72 570.4L589.84 570.4L589.84 617.28C589.84 619.6 589.84 621.44 589.92 622.88C590.16 628.24 593.12 629.52 597.12 629.52C598.72 629.52 600.48 629.44 602 629.2L602 624.24C598.24 624.64 596.96 623.76 596.8 621.04C596.72 619.68 596.72 618.32 596.72 617.04ZM646.4 572.88C636.24 572.88 628 578.88 628 588.4C628 597.52 634.8 601.44 644.56 603.68C654.24 605.92 658.08 608.96 658.08 615.68C658.08 621.44 652.96 624.88 646.64 624.88C639.44 624.88 634.4 620.8 632.8 613.52L625.44 613.52C626.64 624.16 634.32 630.32 646.48 630.32C657.12 630.32 665.44 624.08 665.44 614.4C665.44 605.04 659.36 600.08 647.2 597.28C638.8 595.36 635.36 592.8 635.36 586.8C635.36 581.04 640 578.32 645.84 578.32C652.8 578.32 656.88 582.32 657.52 589.28L664.88 589.28C663.84 579.84 657.84 572.88 646.4 572.88ZM708.8 606.8C708.8 594.4 702.32 585.68 690.64 585.68C679.04 585.68 670.48 594.4 670.48 608.16C670.48 623.12 678.72 630.32 689.76 630.32C698.48 630.32 706.56 625.76 708.24 615.52L701.04 615.52C700.08 621.6 695.6 625.04 690.08 625.04C683.84 625.04 678.56 621.28 677.92 610.08L708.64 610.08C708.8 608.56 708.8 607.44 708.8 606.8ZM690.48 590.96C697.44 590.96 701.2 596 701.84 604.8L678 604.8C678.8 595.76 683.76 590.96 690.48 590.96ZM734.56 585.84C732.56 585.84 730.4 586.56 728.64 587.76L724.8 593.44L724.8 586.8L717.92 586.8L717.92 629.2L724.8 629.2L724.8 605.04C724.8 595.36 730.24 591.12 737.44 591.6L737.44 586.4C736.64 586 735.68 585.84 734.56 585.84ZM779.04 586.8L771.76 586.8L759.04 624.16L746.08 586.8L738.48 586.8L754.56 629.2L762.96 629.2ZM819.6 606.8C819.6 594.4 813.12 585.68 801.44 585.68C789.84 585.68 781.28 594.4 781.28 608.16C781.28 623.12 789.52 630.32 800.56 630.32C809.28 630.32 817.36 625.76 819.04 615.52L811.84 615.52C810.88 621.6 806.4 625.04 800.88 625.04C794.64 625.04 789.36 621.28 788.72 610.08L819.44 610.08C819.6 608.56 819.6 607.44 819.6 606.8ZM801.28 590.96C808.24 590.96 812 596 812.64 604.8L788.8 604.8C789.6 595.76 794.56 590.96 801.28 590.96ZM845.36 585.84C843.36 585.84 841.2 586.56 839.44 587.76L835.6 593.44L835.6 586.8L828.72 586.8L828.72 629.2L835.6 629.2L835.6 605.04C835.6 595.36 841.04 591.12 848.24 591.6L848.24 586.4C847.44 586 846.48 585.84 845.36 585.84ZM911.2 623.6L881.36 623.6L881.36 604.4L908 604.4L908 598.8L881.36 598.8L881.36 579.6L910.4 579.6L910.4 574L874.48 574L874.48 629.2L911.2 629.2ZM936 585.84C934 585.84 931.84 586.56 930.08 587.76L926.24 593.44L926.24 586.8L919.36 586.8L919.36 629.2L926.24 629.2L926.24 605.04C926.24 595.36 931.68 591.12 938.88 591.6L938.88 586.4C938.08 586 937.12 585.84 936 585.84ZM962.4 585.84C960.4 585.84 958.24 586.56 956.48 587.76L952.64 593.44L952.64 586.8L945.76 586.8L945.76 629.2L952.64 629.2L952.64 605.04C952.64 595.36 958.08 591.12 965.28 591.6L965.28 586.4C964.48 586 963.52 585.84 962.4 585.84ZM988.72 585.68C974.32 585.68 967.68 596 967.68 608C967.68 619.92 974.32 630.32 988.72 630.32C1003.12 630.32 1009.76 619.92 1009.76 608C1009.76 596 1003.12 585.68 988.72 585.68ZM988.72 625.04C980.16 625.04 975.2 617.92 975.2 608C975.2 598 980.16 590.96 988.72 590.96C997.28 590.96 1002.24 598 1002.24 608C1002.24 617.92 997.28 625.04 988.72 625.04ZM1034.72 585.84C1032.72 585.84 1030.56 586.56 1028.8 587.76L1024.96 593.44L1024.96 586.8L1018.08 586.8L1018.08 629.2L1024.96 629.2L1024.96 605.04C1024.96 595.36 1030.4 591.12 1037.6 591.6L1037.6 586.4C1036.8 586 1035.84 585.84 1034.72 585.84Z" />
	<path id="Oops! I think we messed it up! " fill="#000000" d="M104.57 403.61C104.57 417.91 110.82 435.17 135.04 435.17C142.93 435.17 153.63 432.91 158.48 426.27L160.2 423.92C164.26 418.38 166.05 410.88 165.98 402.67C165.98 394.39 163.87 387.67 158.63 381.27C153.32 374.31 142.77 372.44 136.6 372.44C121.29 372.44 105.9 380.56 104.57 399.31ZM135.66 388.14C142.46 388.14 143.16 396.5 143.16 402.2C143.16 410.64 142.85 420.02 134.65 420.02C128.87 419.7 127.85 412.05 127.85 406.73C127.85 400.39 127.9 388.14 135.66 388.14ZM168.63 404.7L168.63 407.05C169.65 424.39 181.29 432.44 194.49 432.44C201.13 432.44 210.9 430.88 215.9 424.63L217.46 422.67C221.05 417.75 222.62 412.05 222.62 404.39C222.62 396.66 219.96 391.11 216.21 386.42L216.21 385.33C211.13 378.77 201.13 377.52 196.13 377.52C191.44 378.26 187.21 378.97 183.55 380.48L182.07 380.48C179.8 381.42 177.93 382.44 176.37 384.23L175.43 385.17C169.73 390.88 169.26 397.75 168.55 403.84ZM190.12 405.02L190.12 403.3C190.12 397.98 191.05 391.73 195.98 391.73C200.66 391.73 201.6 398.84 201.6 403.61L201.6 405.02C201.6 411.19 201.29 418.77 195.35 418.77C190.35 418.77 190.12 409.63 190.12 405.02ZM228.71 431.43L247.46 431.42C249.57 431.42 250.27 431.11 250.51 430.09C250.2 424.86 250.2 419.86 250.2 414.62C250.35 414.55 250.51 414.55 250.59 414.55L253.71 414.55C254.88 414.55 256.06 414.39 256.84 414.23L258.09 414.23C262.15 414 265.9 413.3 269.65 411.34C274.65 407.28 277.46 402.75 277.46 396.42C277.46 384.39 267.85 379.39 260.12 379.39L232.15 379.39C230.2 379.78 228.48 378.92 228.48 380.64C228.48 389.16 227.87 397.3 227.87 405.42ZM248.24 401.58C248.24 399.7 248.48 397.52 248.71 395.64L248.71 391.58C248.95 391.34 249.34 391.03 249.41 390.95C253.71 390.95 257.93 391.27 257.93 396.42C257.93 401.11 253.79 402.83 249.65 402.83C249.41 402.83 249.26 402.83 249.18 402.75C249.18 402.83 249.18 402.91 249.26 402.91L249.26 402.83C249.26 402.66 248.34 402.4 248.24 402.28ZM311.76 394.39C314.49 394.39 317.07 394.55 319.34 394.55L325.98 394.55L327.07 392.98C326.68 390.09 326.37 387.05 324.18 384.86C320.51 380.46 312.76 377.2 304.1 377.2C292.7 377.2 279.57 381.71 279.57 395.17C279.57 402.91 284.02 407.91 295.51 411.27L297.85 411.27C301.21 412.2 307.93 413.38 307.93 415.88C307.93 418.06 305.74 419 303.94 419C298.87 419 300.9 414.39 298.01 414.39L296.21 414.39C293.71 414.39 290.74 414.39 288.48 414.47C288.24 414.39 288.09 414.39 287.93 414.39L286.91 414.39C286.37 414.39 285.9 414.39 285.35 414.47L281.37 414.47C280.9 414.47 280.43 414.39 279.96 414.39C279.41 414.39 279.1 414.7 279.1 415.33C279.49 420.33 281.44 424.47 286.37 428.14L286.37 428.61C290.35 431.73 298.16 432.28 302.85 432.52C312.3 431.89 323.87 430.33 327.3 419.94L327.3 420.02C327.93 418.14 328.24 416.11 328.24 413.61C328.24 403.3 319.41 399.47 311.99 397.44L306.27 396.03C304.55 395.17 300.19 395.17 300.19 392.98C300.19 391.5 303.32 391.27 303.87 391.27C309.75 391.27 307.89 394.39 311.76 394.39ZM332.84 375.88L335.09 406.96C335.09 409.3 335.12 412.05 336.91 412.67L340.27 412.67C342.38 412.67 344.34 412.52 346.45 412.52C347.46 412.52 348.48 412.59 349.49 412.59C351.76 412.59 354.03 412.38 354.11 411.21L356.91 375.64C356.91 374.39 355.27 374.08 353.4 374.08C350.04 374.08 347.07 374.31 344.18 374.55L339.49 374.55C339.96 374.55 332.84 374.32 332.84 375.88ZM334.05 432.98C334.13 433.22 334.8 433.38 335.04 433.61L335.04 434.23C337.46 434.23 354.57 434.7 354.96 432.83L354.96 420.48C354.96 419.47 353.63 419.08 342.77 419.08L335.12 419.08C334.26 419.08 333.71 423.14 333.71 427.05ZM387.54 434L412.77 434L412.77 374.23C411.6 374.39 409.73 374.39 408.48 374.39C401.6 374.39 395.35 374.39 388.95 373.92C388.48 374.31 388.24 374.7 388.24 375.25C388.24 376.19 388.32 377.2 388.4 378.06L388.4 379.23C388.4 380.8 388.48 382.44 388.55 384.08C388.24 395.33 388.09 406.42 388.09 417.36C387.7 422.75 387.62 428.61 387.54 434ZM440.82 393.45C440.82 394.47 442.38 394.7 443.24 394.7L453.01 394.7C453.01 395.33 453.09 396.81 453.09 397.52C453.09 398.14 453.01 398.84 453.01 399.47L453.01 400.48C453.01 407.98 452.54 414.78 452.38 421.89L452.38 430.33L453.95 431.42L456.13 431.42C458.01 431.42 459.49 431.34 461.29 431.34L464.41 431.34C465.04 431.34 465.66 431.27 466.29 431.27C466.29 431.5 469.26 431.58 471.29 431.58L473.79 431.58C474.88 431.42 474.88 431.03 475.04 430.33L475.04 394.39L486.13 394.39C486.52 394.39 487.15 394.31 487.23 393.45L487.23 380.95C487.23 380.25 487.23 379.55 486.29 379.39L440.82 379.39ZM540.82 380.88C540.82 379.08 540.2 378.77 539.02 378.77L519.1 378.77L519.1 395.95L512.3 395.95L512.3 379.16L491.29 379.16C490.9 379.47 490.29 379.78 490.29 380.17L490.07 429.39C490.07 430.95 490.98 431.27 491.76 431.27L496.91 431.27C500.9 431.27 504.88 431.11 508.63 431.11L510.43 431.11C511.45 431.11 512.15 431.03 512.38 430.02L512.38 413.14C513.01 413.06 513.87 412.99 514.57 412.99L517.23 412.99C518.48 412.99 518.48 412.91 518.48 414.08L518.48 429.86C518.71 430.25 519.49 430.49 519.73 430.72L519.73 431.58L539.65 431.58C540.74 431.58 540.82 430.25 540.82 428.92ZM547.7 431.5L569.1 431.5C569.65 431.5 569.8 431.11 570.04 430.09L570.04 379.23L549.02 379.23C548.63 379.63 547.77 379.63 547.7 380.17ZM629.26 379.23L615.9 379.23C614.1 379.23 612.38 379.23 612.38 380.17C612.38 386.66 611.99 392.83 611.6 399.7L611.6 405.48C608.6 396.92 605.7 388.26 602.54 379.86C602.54 379.23 602.23 379.16 601.6 378.92L595.04 378.92C589.41 378.92 583.55 379.23 578.16 379.23L578.16 379.08C577.54 379.08 577.38 379.94 577.23 380.48L577.23 388.92C576.84 402.2 576.99 416.73 576.6 429.7L578.32 431.42L594.41 431.42C596.05 431.03 596.13 430.48 596.13 429.08L596.13 421.11C596.37 416.11 596.37 411.03 596.6 405.8L596.6 405.56L596.6 405.8C598.87 413.29 601.74 420.54 604.34 427.83C604.96 429.62 605.74 431.03 606.13 431.11L628.01 431.11C628.87 431.11 630.04 431.03 630.2 429.78L630.2 415.56C630.2 410.87 630.04 406.34 630.04 401.03L630.04 396.89C630.04 395.56 630.04 394.08 630.12 392.52C630.12 390.26 630.88 379.84 629.26 379.23ZM638.79 431.58L655.27 431.58C657.23 431.58 659.1 431.34 659.57 430.02L659.57 412.67L663.95 421.03C665.59 424.16 667.93 427.13 669.65 430.02L669.65 431.11L674.96 431.11C676.91 431.11 679.02 431.03 680.98 431.03C684.73 431.03 688.24 431.03 691.91 431.27C692.54 430.8 692.46 430.16 692.46 429.46L677.18 403.12C681.89 396.27 685.67 388.39 690.12 381.34C690.59 380.72 690.82 379.94 690.82 379.86C690.82 378.92 686.21 378.92 684.49 378.92C684.1 379 683.95 379 683.95 379L681.68 379C681.13 379 680.51 379.08 679.88 379.08L676.91 379.08C675.43 379.08 673.79 378.92 672.23 378.92L668.53 379.02L666.6 383.14C664.23 387.96 661.95 392.79 659.57 397.59L659.57 380.25C659.18 378.3 656.45 378.61 655.12 378.61L637.85 378.61L637.85 429.94C638.15 430.54 638.52 431.12 638.79 431.58ZM737.75 405.43L734.88 380.64C734.8 379 733.79 378.76 732.3 378.76L729.73 378.76L729.73 378.61L727.15 378.61C726.29 378.61 725.51 378.69 724.65 378.69L723.55 378.69C722.93 378.69 722.62 378.76 722.23 378.76L720.9 378.76C720.9 378.92 720.51 378.92 720.12 378.92L717.54 378.92C716.99 378.92 716.45 378.84 715.9 378.76C714.96 379.16 715.12 379.55 715.12 380.25L714.88 383.03L725.28 431.58L726.52 431.58C730.51 431.58 734.26 431.34 739.02 431.34C741.91 431.34 744.73 431.58 747.62 431.58C749.34 431.58 749.49 428.69 749.88 426.58L752.58 405.89L756.91 430.95L779.78 430.95L791.13 381.09C790.82 379.45 789.88 379.16 788.87 379.16C788.4 379.16 787.85 379.23 787.46 379.23C787.23 379 786.6 379 785.74 379C785.04 379 784.26 379.08 783.87 379.08C781.37 379.08 779.18 378.92 776.68 378.92C774.65 378.92 771.59 378.73 771.2 379.82L768.04 406.68L766.37 395.65C765.65 390.4 765.02 384.52 764.34 379.23L741.84 379.23C740.58 387.82 739.7 397.25 737.75 405.43ZM793.63 382.52L793.63 430.09L794.8 431.11L833.48 431.11C834.73 431.03 834.96 430.41 834.96 429.39L834.96 416.89C834.57 415.88 833.16 415.95 832.07 415.95L827.07 415.95C823.95 415.95 820.35 416.19 816.91 416.19C816.29 416.19 815.66 416.11 815.04 416.11L815.04 411.11L821.29 411.11C825.27 411.11 828.79 410.72 831.91 410.72L831.91 410.8C832.3 410.8 832.38 410.56 832.62 410.02L832.62 409C832.62 407.67 832.46 407.44 832.46 405.8L832.46 404.7C832.46 404.08 832.38 403.61 832.38 403.22L832.38 401.73C832.38 401.34 832.54 400.8 832.54 400.41C832.54 399.47 832.23 398.77 830.66 398.77C825.74 398.77 821.21 399.08 816.6 399.08L814.88 399.08L814.88 394.23L833.01 394.23C833.71 393.69 834.02 393.61 834.1 392.98L834.1 379.94C834.1 379.39 833.79 379 833.09 378.92L822.7 378.92C814.73 378.92 806.68 379.31 798.79 379.31L796.76 379.31C796.52 379.23 796.29 379.23 795.9 379.23L794.96 379.23C793.48 379.23 793.63 380.33 793.63 382.52ZM891.99 379.39L888.01 379.39C884.34 379.39 878.4 378.69 871.37 378.69C870.51 378.77 869.41 378.77 868.55 378.77L864.96 378.77C864.1 379.39 864.02 379.63 864.02 380.25L864.02 394.08C864.02 398.69 864.1 404.31 864.1 410.56C864.1 416.89 864.18 423.45 864.41 429.08C864.41 429.31 864.18 430.56 864.18 430.95L882.62 430.95L882.62 424.08C882.62 415.72 882.77 408.14 883.16 400.02L884.57 406.73C886.19 414.49 887.93 422.13 889.65 429.78C889.96 431.11 890.66 431.34 892.23 431.34C892.77 431.34 894.02 431.27 894.73 431.27C897.46 431.27 899.65 431.42 902.77 431.42C904.41 431.42 906.13 431.27 906.68 430.33L909.02 420.33C910.12 415.72 912.15 410.88 913.24 406.27L913.24 403.3C913.16 404.78 913.09 406.19 913.09 407.59C913.09 408.22 913.16 408.84 913.16 409.39L913.16 412.83C913.16 416.03 913.01 418.84 913.01 422.59C913.01 426.58 913.32 430.56 914.96 431.58C919.96 431.58 925.04 431.42 929.96 431.42C931.21 431.42 932.7 431.5 932.93 429.7L932.93 383.69C932.93 381.34 932.77 379.09 931.84 379.09L904.37 379.07L898.28 402.94L893.65 379.14C893.18 379.25 892.46 379.23 891.99 379.39ZM892.85 379.23ZM913.24 403.06L913.24 402.98ZM940.27 382.52L940.27 430.09L941.45 431.11L980.12 431.11C981.37 431.03 981.6 430.41 981.6 429.39L981.6 416.89C981.21 415.88 979.8 415.95 978.71 415.95L973.71 415.95C970.59 415.95 966.99 416.19 963.55 416.19C962.93 416.19 962.3 416.11 961.68 416.11L961.68 411.11L967.93 411.11C971.91 411.11 975.43 410.72 978.55 410.72L978.55 410.8C978.95 410.8 979.02 410.56 979.26 410.02L979.26 409C979.26 407.67 979.1 407.44 979.1 405.8L979.1 404.7C979.1 404.08 979.02 403.61 979.02 403.22L979.02 401.73C979.02 401.34 979.18 400.8 979.18 400.41C979.18 399.47 978.87 398.77 977.3 398.77C972.38 398.77 967.85 399.08 963.24 399.08L961.52 399.08L961.52 394.23L979.65 394.23C980.35 393.69 980.66 393.61 980.74 392.98L980.74 379.94C980.74 379.39 980.43 379 979.73 378.92L969.34 378.92C961.37 378.92 953.32 379.31 945.43 379.31L943.4 379.31C943.16 379.23 942.93 379.23 942.54 379.23L941.6 379.23C940.12 379.23 940.27 380.33 940.27 382.52ZM1016.29 394.39C1019.02 394.39 1021.6 394.55 1023.87 394.55L1030.51 394.55L1031.6 392.98C1031.21 390.09 1030.9 387.05 1028.71 384.86C1025.04 380.46 1017.3 377.2 1008.63 377.2C997.23 377.2 984.1 381.71 984.1 395.17C984.1 402.91 988.55 407.91 1000.04 411.27L1002.38 411.27C1005.74 412.2 1012.46 413.38 1012.46 415.88C1012.46 418.06 1010.27 419 1008.48 419C1003.4 419 1005.43 414.39 1002.54 414.39L1000.74 414.39C998.24 414.39 995.27 414.39 993.01 414.47C992.77 414.39 992.62 414.39 992.46 414.39L991.44 414.39C990.9 414.39 990.43 414.39 989.88 414.47L985.9 414.47C985.43 414.47 984.96 414.39 984.49 414.39C983.94 414.39 983.63 414.7 983.63 415.33C984.02 420.33 985.98 424.47 990.9 428.14L990.9 428.61C994.88 431.73 1002.69 432.28 1007.38 432.52C1016.84 431.89 1028.4 430.33 1031.84 419.94L1031.84 420.02C1032.46 418.14 1032.77 416.11 1032.77 413.61C1032.77 403.3 1023.94 399.47 1016.52 397.44L1010.8 396.03C1009.08 395.17 1004.73 395.17 1004.73 392.98C1004.73 391.5 1007.85 391.27 1008.4 391.27C1014.28 391.27 1012.42 394.39 1016.29 394.39ZM1067.62 394.39C1070.35 394.39 1072.93 394.55 1075.2 394.55L1081.84 394.55L1082.93 392.98C1082.54 390.09 1082.23 387.05 1080.04 384.86C1076.37 380.46 1068.62 377.2 1059.96 377.2C1048.56 377.2 1035.43 381.71 1035.43 395.17C1035.43 402.91 1039.88 407.91 1051.37 411.27L1053.71 411.27C1057.07 412.2 1063.79 413.38 1063.79 415.88C1063.79 418.06 1061.6 419 1059.8 419C1054.73 419 1056.76 414.39 1053.87 414.39L1052.07 414.39C1049.57 414.39 1046.6 414.39 1044.34 414.47C1044.1 414.39 1043.94 414.39 1043.79 414.39L1042.77 414.39C1042.23 414.39 1041.76 414.39 1041.21 414.47L1037.23 414.47C1036.76 414.47 1036.29 414.39 1035.82 414.39C1035.27 414.39 1034.96 414.7 1034.96 415.33C1035.35 420.33 1037.3 424.47 1042.23 428.14L1042.23 428.61C1046.21 431.73 1054.02 432.28 1058.71 432.52C1068.16 431.89 1079.73 430.33 1083.16 419.94L1083.16 420.02C1083.79 418.14 1084.1 416.11 1084.1 413.61C1084.1 403.3 1075.27 399.47 1067.85 397.44L1062.13 396.03C1060.41 395.17 1056.05 395.17 1056.05 392.98C1056.05 391.5 1059.18 391.27 1059.73 391.27C1065.61 391.27 1063.75 394.39 1067.62 394.39ZM1088.48 382.52L1088.48 430.09L1089.65 431.11L1128.32 431.11C1129.57 431.03 1129.8 430.41 1129.8 429.39L1129.8 416.89C1129.41 415.88 1128.01 415.95 1126.91 415.95L1121.91 415.95C1118.79 415.95 1115.2 416.19 1111.76 416.19C1111.13 416.19 1110.51 416.11 1109.88 416.11L1109.88 411.11L1116.13 411.11C1120.12 411.11 1123.63 410.72 1126.76 410.72L1126.76 410.8C1127.15 410.8 1127.23 410.56 1127.46 410.02L1127.46 409C1127.46 407.67 1127.3 407.44 1127.3 405.8L1127.3 404.7C1127.3 404.08 1127.23 403.61 1127.23 403.22L1127.23 401.73C1127.23 401.34 1127.38 400.8 1127.38 400.41C1127.38 399.47 1127.07 398.77 1125.51 398.77C1120.59 398.77 1116.05 399.08 1111.45 399.08L1109.73 399.08L1109.73 394.23L1127.85 394.23C1128.55 393.69 1128.87 393.61 1128.95 392.98L1128.95 379.94C1128.95 379.39 1128.63 379 1127.93 378.92L1117.54 378.92C1109.57 378.92 1101.52 379.31 1093.63 379.31L1091.6 379.31C1091.37 379.23 1091.13 379.23 1090.74 379.23L1089.8 379.23C1088.32 379.23 1088.48 380.33 1088.48 382.52ZM1155.82 378.77L1145.82 378.77C1142.41 378.77 1138.95 379.47 1135.59 379.47C1135.35 379.47 1134.96 379.39 1134.73 379.39L1134.73 431.27L1161.52 431.27C1172.3 430.64 1185.9 423.3 1185.9 404.86C1185.9 383.98 1172.67 378.77 1155.82 378.77ZM1156.29 419.08L1154.41 419.08L1154.41 391.42L1155.59 391.42L1155.59 390.56C1158.94 390.56 1161.91 390.95 1164.02 395.17C1165.12 397.98 1164.73 399.86 1165.12 401.89L1165.12 404.7C1165.12 410.35 1164.52 419.08 1156.29 419.08ZM1214.49 431.5L1235.9 431.5C1236.45 431.5 1236.6 431.11 1236.84 430.09L1236.84 379.23L1215.82 379.23C1215.43 379.63 1214.57 379.63 1214.49 380.17ZM1240.27 393.45C1240.27 394.47 1241.84 394.7 1242.7 394.7L1252.46 394.7C1252.46 395.33 1252.54 396.81 1252.54 397.52C1252.54 398.14 1252.46 398.84 1252.46 399.47L1252.46 400.48C1252.46 407.98 1251.99 414.78 1251.84 421.89L1251.84 430.33L1253.4 431.42L1255.59 431.42C1257.46 431.42 1258.95 431.34 1260.74 431.34L1263.87 431.34C1264.49 431.34 1265.12 431.27 1265.74 431.27C1265.74 431.5 1268.71 431.58 1270.74 431.58L1273.24 431.58C1274.34 431.42 1274.34 431.03 1274.49 430.33L1274.49 394.39L1285.59 394.39C1285.98 394.39 1286.6 394.31 1286.68 393.45L1286.68 380.95C1286.68 380.25 1286.68 379.55 1285.74 379.39L1240.27 379.39ZM627.81 484.38L627.81 484.3L627.81 485.63C627.81 486.8 627.97 487.97 627.97 489.14C627.97 489.53 627.89 490 627.89 490.39L627.89 491.48C627.58 497.73 627.73 503.28 627.66 509.38C628.05 521.56 636.48 526.95 644.38 527.89L646.17 527.89C647.66 528.05 649.69 528.36 651.17 528.28L651.17 528.2C651.56 528.2 652.34 528.13 652.34 527.81L653.28 527.81C653.83 528.05 654.38 528.05 654.92 528.05C663.75 528.05 673.2 525.55 676.72 517.42L676.72 517.27C677.58 515.39 677.81 512.34 677.81 509.45L677.81 506.41C677.73 505.86 677.73 505.23 677.73 504.53C677.73 503.83 677.81 503.05 677.81 502.19L677.81 499.77C677.97 493.28 678.2 487.34 678.44 480.7L678.44 474.61L656.72 474.61C656.02 474.92 655.63 475.47 655.63 476.17C655.78 479.22 655.78 482.58 655.78 486.02C655.78 491.95 655.63 497.58 655.55 503.28L655.55 509.06C655.55 511.02 654.38 512.81 652.66 512.81C649.92 512.81 649.69 509.45 649.69 507.73L649.69 474.92L628.44 474.92C627.81 475.55 627.66 477.81 627.66 479.92C627.66 481.93 627.62 483.43 627.81 484.38ZM685.23 527.43L703.98 527.42C706.09 527.42 706.8 527.11 707.03 526.09C706.72 520.86 706.72 515.86 706.72 510.62C706.88 510.55 707.03 510.55 707.11 510.55L710.23 510.55C711.41 510.55 712.58 510.39 713.36 510.23L714.61 510.23C718.67 510 722.42 509.3 726.17 507.34C731.17 503.28 733.98 498.75 733.98 492.42C733.98 480.39 724.38 475.39 716.64 475.39L688.67 475.39C686.72 475.78 685 474.92 685 476.64C685 485.16 684.4 493.3 684.4 501.42ZM704.77 497.58C704.77 495.7 705 493.52 705.24 491.64L705.24 487.58C705.47 487.34 705.86 487.03 705.94 486.95C710.24 486.95 714.45 487.27 714.45 492.42C714.45 497.11 710.31 498.83 706.17 498.83C705.94 498.83 705.78 498.83 705.7 498.75C705.7 498.83 705.7 498.91 705.78 498.91L705.78 498.83C705.78 498.66 704.86 498.4 704.77 498.28ZM738.04 471.88L740.29 502.96C740.29 505.3 740.31 508.05 742.11 508.67L745.47 508.67C747.58 508.67 749.53 508.52 751.64 508.52C752.66 508.52 753.67 508.59 754.69 508.59C756.95 508.59 759.22 508.38 759.3 507.21L762.11 471.64C762.11 470.39 760.47 470.08 758.59 470.08C755.23 470.08 752.27 470.31 749.38 470.55L744.69 470.55C745.16 470.55 738.04 470.32 738.04 471.88ZM739.25 528.98C739.32 529.22 740 529.38 740.23 529.61L740.23 530.23C742.66 530.23 759.77 530.7 760.16 528.83L760.16 516.48C760.16 515.47 758.83 515.08 747.97 515.08L740.31 515.08C739.45 515.08 738.91 519.14 738.91 523.05Z" />
	<path id="500 " fill="#000000" d="M377.28 220.6C383.14 277.73 430.6 287.69 472.79 287.69C519.66 287.69 571.23 266.01 571.23 202.43C571.23 161.42 543.39 131.54 499.45 131.54C485.39 131.54 468.39 135.34 458.14 142.67C459.02 134.17 459.31 125.09 460.19 116.01C490.66 115.71 522.3 115.42 552.77 115.42C559.21 115.42 558.92 113.96 558.92 90.23L558.92 61.81C558.04 58.59 553.65 56.83 549.84 56.83L388.71 56.83C385.19 60.64 385.19 65.32 385.19 70.89L385.19 180.17C385.19 186.61 385.48 192.18 389.59 198.04L454.63 198.04C465.76 198.04 455.8 181.05 471.62 181.05C484.51 181.05 485.68 195.4 485.68 207.12C485.68 215.62 484.21 231.73 471.03 231.73C459.9 231.73 465.17 217.08 457.55 216.2C443.79 216.2 432.07 215.32 418.88 215.32L394.86 215.32C385.19 215.32 377.28 215.91 377.28 220.6ZM686.07 287.39C744.66 287.39 790.07 249.6 790.07 173.72C790.07 120.99 773.08 52.14 687.83 52.14C628.36 56.83 585.29 88.47 585.29 171.38C589.73 235.72 607.31 287.4 686.07 287.4ZM663.81 177.24C663.81 147.94 662.93 105.17 689.59 105.17C715.37 105.17 711.85 148.53 711.85 161.13C711.85 166.4 711.85 171.67 711.27 176.65C711.27 196.87 712.15 235.25 686.66 235.25C664.98 235.25 663.81 198.92 663.81 177.24ZM900.23 287.39C958.82 287.39 1004.23 249.6 1004.23 173.72C1004.23 120.99 987.24 52.14 901.99 52.14C842.52 56.83 799.45 88.47 799.45 171.38C803.89 235.72 821.47 287.4 900.23 287.4ZM877.97 177.24C877.97 147.94 877.09 105.17 903.75 105.17C929.53 105.17 926.01 148.53 926.01 161.13C926.01 166.4 926.01 171.67 925.43 176.65C925.43 196.87 926.31 235.25 900.82 235.25C879.14 235.25 877.97 198.92 877.97 177.24Z" />
</svg>